# MagicaVoxel @ Ephtracy

# group
o 

# material
mtllib BookOfLife.mtl
usemtl palette

# normals
vn -1 0 0
vn 1 0 0
vn 0 0 1
vn 0 0 -1
vn 0 -1 0
vn 0 1 0

# texcoords
vt 0.00195312 0.5
vt 0.0410156 0.5
vt 0.958984 0.5
vt 0.962891 0.5
vt 0.990234 0.5
vt 0.994141 0.5

# verts
v -0.8 0 0.5
v -0.8 0 -0.5
v -0.8 0.1 0.5
v -0.8 0.1 -0.5
v -0.7 0.1 0.4
v -0.7 0.1 -0.4
v -0.7 0.2 0.4
v -0.7 0.2 -0.4
v -0.6 0.2 0.3
v -0.6 0.2 -0.3
v -0.6 0.3 0.3
v -0.6 0.3 -0.3
v -0.5 0.3 0.3
v -0.5 0.3 -0.3
v -0.5 0.4 0.3
v -0.5 0.4 -0.3
v 0 0.1 0.4
v 0 0.1 0.3
v 0 0.1 -0.3
v 0 0.1 -0.4
v 0 0.2 0.4
v 0 0.2 0.3
v 0 0.2 -0.3
v 0 0.2 -0.4
v 0 0.3 0.3
v 0 0.3 -0.3
v 0 0.4 0.3
v 0 0.4 -0.3
v -0.1 0.1 0.4
v -0.1 0.1 0.3
v -0.1 0.1 -0.3
v -0.1 0.1 -0.4
v -0.1 0.2 0.4
v -0.1 0.2 0.3
v -0.1 0.2 -0.3
v -0.1 0.2 -0.4
v -0.1 0.3 0.3
v -0.1 0.3 -0.3
v -0.1 0.4 0.3
v -0.1 0.4 -0.3
v 0.4 0.3 0.3
v 0.4 0.3 -0.3
v 0.4 0.4 0.3
v 0.4 0.4 -0.3
v 0.5 0.2 0.3
v 0.5 0.2 -0.3
v 0.5 0.3 0.3
v 0.5 0.3 -0.3
v 0.6 0.1 0.4
v 0.6 0.1 -0.4
v 0.6 0.2 0.4
v 0.6 0.2 -0.4
v 0.7 0 0.5
v 0.7 0 -0.5
v 0.7 0.1 0.5
v 0.7 0.1 -0.5
v -0.8 0 0.5
v -0.8 0.1 0.5
v -0.1 0 0.5
v -0.1 0.1 0.5
v 0 0 0.5
v 0 0.1 0.5
v 0.7 0 0.5
v 0.7 0.1 0.5
v -0.7 0.1 0.4
v -0.7 0.2 0.4
v -0.1 0.1 0.4
v -0.1 0.2 0.4
v 0 0.1 0.4
v 0 0.2 0.4
v 0.6 0.1 0.4
v 0.6 0.2 0.4
v -0.6 0.2 0.3
v -0.6 0.3 0.3
v -0.5 0.3 0.3
v -0.5 0.4 0.3
v -0.1 0.2 0.3
v -0.1 0.3 0.3
v -0.1 0.4 0.3
v 0 0.2 0.3
v 0 0.3 0.3
v 0 0.4 0.3
v 0.4 0.3 0.3
v 0.4 0.4 0.3
v 0.5 0.2 0.3
v 0.5 0.3 0.3
v -0.6 0.2 -0.3
v -0.6 0.3 -0.3
v -0.5 0.3 -0.3
v -0.5 0.4 -0.3
v -0.1 0.2 -0.3
v -0.1 0.3 -0.3
v -0.1 0.4 -0.3
v 0 0.2 -0.3
v 0 0.3 -0.3
v 0 0.4 -0.3
v 0.4 0.3 -0.3
v 0.4 0.4 -0.3
v 0.5 0.2 -0.3
v 0.5 0.3 -0.3
v -0.7 0.1 -0.4
v -0.7 0.2 -0.4
v -0.1 0.1 -0.4
v -0.1 0.2 -0.4
v 0 0.1 -0.4
v 0 0.2 -0.4
v 0.6 0.1 -0.4
v 0.6 0.2 -0.4
v -0.8 0 -0.5
v -0.8 0.1 -0.5
v -0.1 0 -0.5
v -0.1 0.1 -0.5
v 0 0 -0.5
v 0 0.1 -0.5
v 0.7 0 -0.5
v 0.7 0.1 -0.5
v -0.8 0 0.5
v -0.1 0 0.5
v 0 0 0.5
v 0.7 0 0.5
v -0.8 0 -0.5
v -0.1 0 -0.5
v 0 0 -0.5
v 0.7 0 -0.5
v -0.8 0.1 0.5
v -0.1 0.1 0.5
v 0 0.1 0.5
v 0.7 0.1 0.5
v -0.7 0.1 0.4
v -0.1 0.1 0.4
v 0 0.1 0.4
v 0.6 0.1 0.4
v -0.1 0.1 0.3
v 0 0.1 0.3
v -0.1 0.1 -0.3
v 0 0.1 -0.3
v -0.7 0.1 -0.4
v -0.1 0.1 -0.4
v 0 0.1 -0.4
v 0.6 0.1 -0.4
v -0.8 0.1 -0.5
v -0.1 0.1 -0.5
v 0 0.1 -0.5
v 0.7 0.1 -0.5
v -0.7 0.2 0.4
v -0.1 0.2 0.4
v 0 0.2 0.4
v 0.6 0.2 0.4
v -0.6 0.2 0.3
v -0.1 0.2 0.3
v 0 0.2 0.3
v 0.5 0.2 0.3
v -0.6 0.2 -0.3
v -0.1 0.2 -0.3
v 0 0.2 -0.3
v 0.5 0.2 -0.3
v -0.7 0.2 -0.4
v -0.1 0.2 -0.4
v 0 0.2 -0.4
v 0.6 0.2 -0.4
v -0.6 0.3 0.3
v -0.5 0.3 0.3
v 0.4 0.3 0.3
v 0.5 0.3 0.3
v -0.6 0.3 -0.3
v -0.5 0.3 -0.3
v 0.4 0.3 -0.3
v 0.5 0.3 -0.3
v -0.5 0.4 0.3
v -0.1 0.4 0.3
v 0 0.4 0.3
v 0.4 0.4 0.3
v -0.4 0.4 0.2
v -0.2 0.4 0.2
v 0.2 0.4 0.2
v 0.3 0.4 0.2
v -0.4 0.4 0.1
v -0.3 0.4 0.1
v 0.1 0.4 0.1
v 0.2 0.4 0.1
v 0.1 0.4 0
v 0.2 0.4 0
v -0.4 0.4 -0.1
v -0.3 0.4 -0.1
v -0.2 0.4 -0.1
v 0.1 0.4 -0.1
v 0.2 0.4 -0.1
v -0.4 0.4 -0.2
v -0.3 0.4 -0.2
v 0.1 0.4 -0.2
v 0.3 0.4 -0.2
v -0.5 0.4 -0.3
v -0.1 0.4 -0.3
v 0 0.4 -0.3
v 0.4 0.4 -0.3

# faces
f 3/5/1 2/5/1 1/5/1
f 4/5/1 2/5/1 3/5/1
f 7/3/1 6/3/1 5/3/1
f 8/3/1 6/3/1 7/3/1
f 11/3/1 10/3/1 9/3/1
f 12/3/1 10/3/1 11/3/1
f 15/4/1 14/4/1 13/4/1
f 16/4/1 14/4/1 15/4/1
f 21/3/1 18/3/1 17/3/1
f 22/1/1 19/1/1 18/1/1
f 22/3/1 18/3/1 21/3/1
f 23/3/1 20/3/1 19/3/1
f 23/1/1 19/1/1 22/1/1
f 24/3/1 20/3/1 23/3/1
f 25/3/1 23/3/1 22/3/1
f 26/3/1 23/3/1 25/3/1
f 27/4/1 26/4/1 25/4/1
f 28/4/1 26/4/1 27/4/1
f 29/3/2 30/3/2 33/3/2
f 30/1/2 31/1/2 34/1/2
f 33/3/2 30/3/2 34/3/2
f 31/3/2 32/3/2 35/3/2
f 34/1/2 31/1/2 35/1/2
f 35/3/2 32/3/2 36/3/2
f 34/3/2 35/3/2 37/3/2
f 37/3/2 35/3/2 38/3/2
f 37/4/2 38/4/2 39/4/2
f 39/4/2 38/4/2 40/4/2
f 41/4/2 42/4/2 43/4/2
f 43/4/2 42/4/2 44/4/2
f 45/3/2 46/3/2 47/3/2
f 47/3/2 46/3/2 48/3/2
f 49/3/2 50/3/2 51/3/2
f 51/3/2 50/3/2 52/3/2
f 53/5/2 54/5/2 55/5/2
f 55/5/2 54/5/2 56/5/2
f 59/5/3 58/5/3 57/5/3
f 60/5/3 58/5/3 59/5/3
f 61/6/3 60/6/3 59/6/3
f 62/6/3 60/6/3 61/6/3
f 63/5/3 62/5/3 61/5/3
f 64/5/3 62/5/3 63/5/3
f 67/3/3 66/3/3 65/3/3
f 68/3/3 66/3/3 67/3/3
f 71/3/3 70/3/3 69/3/3
f 72/3/3 70/3/3 71/3/3
f 75/3/3 74/3/3 73/3/3
f 77/3/3 75/3/3 73/3/3
f 78/4/3 76/4/3 75/4/3
f 78/3/3 75/3/3 77/3/3
f 79/4/3 76/4/3 78/4/3
f 83/3/3 81/3/3 80/3/3
f 83/4/3 82/4/3 81/4/3
f 84/4/3 82/4/3 83/4/3
f 85/3/3 83/3/3 80/3/3
f 86/3/3 83/3/3 85/3/3
f 87/3/4 88/3/4 89/3/4
f 87/3/4 89/3/4 91/3/4
f 89/4/4 90/4/4 92/4/4
f 91/3/4 89/3/4 92/3/4
f 92/4/4 90/4/4 93/4/4
f 94/3/4 95/3/4 97/3/4
f 95/4/4 96/4/4 97/4/4
f 97/4/4 96/4/4 98/4/4
f 94/3/4 97/3/4 99/3/4
f 99/3/4 97/3/4 100/3/4
f 101/3/4 102/3/4 103/3/4
f 103/3/4 102/3/4 104/3/4
f 105/3/4 106/3/4 107/3/4
f 107/3/4 106/3/4 108/3/4
f 109/5/4 110/5/4 111/5/4
f 111/5/4 110/5/4 112/5/4
f 111/6/4 112/6/4 113/6/4
f 113/6/4 112/6/4 114/6/4
f 113/5/4 114/5/4 115/5/4
f 115/5/4 114/5/4 116/5/4
f 121/5/5 118/5/5 117/5/5
f 122/6/5 119/6/5 118/6/5
f 122/5/5 118/5/5 121/5/5
f 123/5/5 120/5/5 119/5/5
f 123/6/5 119/6/5 122/6/5
f 124/5/5 120/5/5 123/5/5
f 125/5/6 126/5/6 129/5/6
f 126/6/6 127/6/6 130/6/6
f 129/5/6 126/5/6 130/5/6
f 127/5/6 128/5/6 131/5/6
f 130/6/6 127/6/6 131/6/6
f 131/5/6 128/5/6 132/5/6
f 130/6/6 131/6/6 133/6/6
f 133/6/6 131/6/6 134/6/6
f 133/6/6 134/6/6 135/6/6
f 135/6/6 134/6/6 136/6/6
f 125/5/6 129/5/6 137/5/6
f 135/6/6 136/6/6 138/6/6
f 138/6/6 136/6/6 139/6/6
f 132/5/6 128/5/6 140/5/6
f 137/5/6 138/5/6 141/5/6
f 125/5/6 137/5/6 141/5/6
f 138/6/6 139/6/6 142/6/6
f 141/5/6 138/5/6 142/5/6
f 139/5/6 140/5/6 143/5/6
f 142/6/6 139/6/6 143/6/6
f 140/5/6 128/5/6 144/5/6
f 143/5/6 140/5/6 144/5/6
f 145/3/6 146/3/6 149/3/6
f 149/3/6 146/3/6 150/3/6
f 147/3/6 148/3/6 151/3/6
f 151/3/6 148/3/6 152/3/6
f 145/3/6 149/3/6 153/3/6
f 152/3/6 148/3/6 156/3/6
f 153/3/6 154/3/6 157/3/6
f 145/3/6 153/3/6 157/3/6
f 157/3/6 154/3/6 158/3/6
f 155/3/6 156/3/6 159/3/6
f 156/3/6 148/3/6 160/3/6
f 159/3/6 156/3/6 160/3/6
f 161/3/6 162/3/6 165/3/6
f 165/3/6 162/3/6 166/3/6
f 163/3/6 164/3/6 167/3/6
f 167/3/6 164/3/6 168/3/6
f 169/4/6 170/4/6 173/4/6
f 173/4/6 170/4/6 174/4/6
f 171/4/6 172/4/6 175/4/6
f 175/4/6 172/4/6 176/4/6
f 169/4/6 173/4/6 177/4/6
f 173/2/6 174/2/6 177/2/6
f 177/2/6 174/2/6 178/2/6
f 171/4/6 175/4/6 179/4/6
f 175/2/6 176/2/6 180/2/6
f 179/4/6 175/4/6 180/4/6
f 171/4/6 179/4/6 181/4/6
f 179/2/6 180/2/6 181/2/6
f 180/2/6 176/2/6 182/2/6
f 181/2/6 180/2/6 182/2/6
f 169/4/6 177/4/6 183/4/6
f 177/4/6 178/4/6 183/4/6
f 178/2/6 174/2/6 184/2/6
f 183/4/6 178/4/6 184/4/6
f 174/4/6 170/4/6 185/4/6
f 184/2/6 174/2/6 185/2/6
f 171/4/6 181/4/6 186/4/6
f 181/4/6 182/4/6 186/4/6
f 182/2/6 176/2/6 187/2/6
f 186/4/6 182/4/6 187/4/6
f 183/2/6 184/2/6 188/2/6
f 169/4/6 183/4/6 188/4/6
f 184/4/6 185/4/6 189/4/6
f 188/2/6 184/2/6 189/2/6
f 186/2/6 187/2/6 190/2/6
f 171/4/6 186/4/6 190/4/6
f 187/2/6 176/2/6 191/2/6
f 190/2/6 187/2/6 191/2/6
f 176/4/6 172/4/6 191/4/6
f 169/4/6 188/4/6 192/4/6
f 188/4/6 189/4/6 192/4/6
f 185/4/6 170/4/6 193/4/6
f 192/4/6 189/4/6 193/4/6
f 189/4/6 185/4/6 193/4/6
f 171/4/6 190/4/6 194/4/6
f 190/4/6 191/4/6 194/4/6
f 191/4/6 172/4/6 195/4/6
f 194/4/6 191/4/6 195/4/6
