# MagicaVoxel @ Ephtracy

# group
o 

# material
mtllib Nathaniel.mtl
usemtl palette

# normals
vn -1 0 0
vn 1 0 0
vn 0 0 1
vn 0 0 -1
vn 0 -1 0
vn 0 1 0

# texcoords
vt 0.283203 0.5
vt 0.537109 0.5
vt 0.958984 0.5
vt 0.986328 0.5
vt 0.994141 0.5

# verts
v -0.8 1.2 0
v -0.8 1.2 -0.2
v -0.8 1.3 0
v -0.8 1.3 -0.2
v -0.3 0 0.1
v -0.3 0 -0.2
v -0.3 0.1 0.1
v -0.3 0.1 0
v -0.3 0.1 -0.2
v -0.3 0.7 0
v -0.3 0.7 -0.2
v -0.3 1.2 0
v -0.3 1.2 -0.2
v -0.3 1.4 0.2
v -0.3 1.4 -0.3
v -0.3 1.4 -0.4
v -0.3 1.8 0.1
v -0.3 1.8 -0.3
v -0.3 1.9 0.2
v -0.3 1.9 0.1
v -0.3 2 0.2
v -0.3 2 -0.4
v -0.1 1.3 0
v -0.1 1.3 -0.2
v -0.1 1.4 0
v -0.1 1.4 -0.2
v 0.1 0 0.1
v 0.1 0 -0.2
v 0.1 0.1 0.1
v 0.1 0.1 0
v 0.1 0.1 -0.2
v 0.1 0.6 0
v 0.1 0.6 -0.2
v -0.1 0 0.1
v -0.1 0 -0.2
v -0.1 0.1 0.1
v -0.1 0.1 0
v -0.1 0.1 -0.2
v -0.1 0.6 0
v -0.1 0.6 -0.2
v 0.1 1.3 0
v 0.1 1.3 -0.2
v 0.1 1.4 0
v 0.1 1.4 -0.2
v 0.3 0 0.1
v 0.3 0 -0.2
v 0.3 0.1 0.1
v 0.3 0.1 0
v 0.3 0.1 -0.2
v 0.3 0.7 0
v 0.3 0.7 -0.2
v 0.3 1.2 0
v 0.3 1.2 -0.2
v 0.3 1.4 0.2
v 0.3 1.4 -0.3
v 0.3 1.4 -0.4
v 0.3 1.8 0.1
v 0.3 1.8 -0.3
v 0.3 1.9 0.2
v 0.3 1.9 0.1
v 0.3 2 0.2
v 0.3 2 -0.4
v 0.8 1.2 0
v 0.8 1.2 -0.2
v 0.8 1.3 0
v 0.8 1.3 -0.2
v -0.3 1.4 0.2
v -0.3 1.9 0.2
v -0.3 2 0.2
v -0.2 1.6 0.2
v -0.2 1.8 0.2
v -0.1 1.6 0.2
v -0.1 1.8 0.2
v 0.1 1.6 0.2
v 0.1 1.8 0.2
v 0.2 1.6 0.2
v 0.2 1.8 0.2
v 0.3 1.4 0.2
v 0.3 1.9 0.2
v 0.3 2 0.2
v -0.3 0 0.1
v -0.3 0.1 0.1
v -0.1 0 0.1
v -0.1 0.1 0.1
v 0.1 0 0.1
v 0.1 0.1 0.1
v 0.3 0 0.1
v 0.3 0.1 0.1
v -0.8 1.2 0
v -0.8 1.3 0
v -0.3 0.1 0
v -0.3 0.7 0
v -0.3 1.2 0
v -0.3 1.3 0
v -0.1 0.1 0
v -0.1 0.6 0
v -0.1 1.3 0
v -0.1 1.4 0
v 0.1 0.1 0
v 0.1 0.6 0
v 0.1 1.3 0
v 0.1 1.4 0
v 0.3 0.1 0
v 0.3 0.7 0
v 0.3 1.2 0
v 0.3 1.3 0
v 0.8 1.2 0
v 0.8 1.3 0
v -0.8 1.2 -0.2
v -0.8 1.3 -0.2
v -0.3 0 -0.2
v -0.3 0.1 -0.2
v -0.3 0.7 -0.2
v -0.3 1.2 -0.2
v -0.3 1.3 -0.2
v -0.1 0 -0.2
v -0.1 0.1 -0.2
v -0.1 0.6 -0.2
v -0.1 1.3 -0.2
v -0.1 1.4 -0.2
v 0.1 0 -0.2
v 0.1 0.1 -0.2
v 0.1 0.6 -0.2
v 0.1 1.3 -0.2
v 0.1 1.4 -0.2
v 0.3 0 -0.2
v 0.3 0.1 -0.2
v 0.3 0.7 -0.2
v 0.3 1.2 -0.2
v 0.3 1.3 -0.2
v 0.8 1.2 -0.2
v 0.8 1.3 -0.2
v -0.3 1.4 -0.4
v -0.3 2 -0.4
v 0.3 1.4 -0.4
v 0.3 2 -0.4
v -0.3 0 0.1
v -0.1 0 0.1
v 0.1 0 0.1
v 0.3 0 0.1
v -0.3 0 -0.2
v -0.1 0 -0.2
v 0.1 0 -0.2
v 0.3 0 -0.2
v -0.1 0.6 0
v 0.1 0.6 0
v -0.1 0.6 -0.2
v 0.1 0.6 -0.2
v -0.8 1.2 0
v -0.3 1.2 0
v 0.3 1.2 0
v 0.8 1.2 0
v -0.8 1.2 -0.2
v -0.3 1.2 -0.2
v 0.3 1.2 -0.2
v 0.8 1.2 -0.2
v -0.3 1.4 0.2
v 0.3 1.4 0.2
v -0.1 1.4 0
v 0.1 1.4 0
v -0.1 1.4 -0.2
v 0.1 1.4 -0.2
v -0.3 1.4 -0.3
v 0.3 1.4 -0.3
v -0.3 1.4 -0.4
v 0.3 1.4 -0.4
v -0.3 0.1 0.1
v -0.1 0.1 0.1
v 0.1 0.1 0.1
v 0.3 0.1 0.1
v -0.3 0.1 0
v -0.1 0.1 0
v 0.1 0.1 0
v 0.3 0.1 0
v -0.8 1.3 0
v -0.3 1.3 0
v -0.1 1.3 0
v 0.1 1.3 0
v 0.3 1.3 0
v 0.8 1.3 0
v -0.8 1.3 -0.2
v -0.3 1.3 -0.2
v -0.1 1.3 -0.2
v 0.1 1.3 -0.2
v 0.3 1.3 -0.2
v 0.8 1.3 -0.2
v -0.3 2 0.2
v 0.3 2 0.2
v -0.3 2 -0.4
v 0.3 2 -0.4

# faces
f 3/2/1 2/2/1 1/2/1
f 4/2/1 2/2/1 3/2/1
f 7/3/1 6/3/1 5/3/1
f 8/3/1 6/3/1 7/3/1
f 9/3/1 6/3/1 8/3/1
f 10/4/1 9/4/1 8/4/1
f 11/4/1 9/4/1 10/4/1
f 12/1/1 11/1/1 10/1/1
f 13/1/1 11/1/1 12/1/1
f 17/2/1 15/2/1 14/2/1
f 18/5/1 16/5/1 15/5/1
f 18/2/1 15/2/1 17/2/1
f 19/2/1 17/2/1 14/2/1
f 20/5/1 18/5/1 17/5/1
f 20/2/1 17/2/1 19/2/1
f 21/5/1 20/5/1 19/5/1
f 22/5/1 16/5/1 18/5/1
f 22/5/1 20/5/1 21/5/1
f 22/5/1 18/5/1 20/5/1
f 25/2/1 24/2/1 23/2/1
f 26/2/1 24/2/1 25/2/1
f 29/3/1 28/3/1 27/3/1
f 30/3/1 28/3/1 29/3/1
f 31/3/1 28/3/1 30/3/1
f 32/4/1 31/4/1 30/4/1
f 33/4/1 31/4/1 32/4/1
f 34/3/2 35/3/2 36/3/2
f 36/3/2 35/3/2 37/3/2
f 37/3/2 35/3/2 38/3/2
f 37/4/2 38/4/2 39/4/2
f 39/4/2 38/4/2 40/4/2
f 41/2/2 42/2/2 43/2/2
f 43/2/2 42/2/2 44/2/2
f 45/3/2 46/3/2 47/3/2
f 47/3/2 46/3/2 48/3/2
f 48/3/2 46/3/2 49/3/2
f 48/4/2 49/4/2 50/4/2
f 50/4/2 49/4/2 51/4/2
f 50/1/2 51/1/2 52/1/2
f 52/1/2 51/1/2 53/1/2
f 54/2/2 55/2/2 57/2/2
f 55/5/2 56/5/2 58/5/2
f 57/2/2 55/2/2 58/2/2
f 54/2/2 57/2/2 59/2/2
f 57/5/2 58/5/2 60/5/2
f 59/2/2 57/2/2 60/2/2
f 59/5/2 60/5/2 61/5/2
f 58/5/2 56/5/2 62/5/2
f 61/5/2 60/5/2 62/5/2
f 60/5/2 58/5/2 62/5/2
f 63/2/2 64/2/2 65/2/2
f 65/2/2 64/2/2 66/2/2
f 70/2/3 68/2/3 67/2/3
f 71/2/3 68/2/3 70/2/3
f 72/2/3 70/2/3 67/2/3
f 72/5/3 71/5/3 70/5/3
f 73/2/3 68/2/3 71/2/3
f 73/5/3 71/5/3 72/5/3
f 74/2/3 72/2/3 67/2/3
f 74/2/3 73/2/3 72/2/3
f 75/2/3 68/2/3 73/2/3
f 75/2/3 73/2/3 74/2/3
f 76/2/3 74/2/3 67/2/3
f 76/5/3 75/5/3 74/5/3
f 77/2/3 68/2/3 75/2/3
f 77/5/3 75/5/3 76/5/3
f 78/2/3 76/2/3 67/2/3
f 78/2/3 77/2/3 76/2/3
f 79/5/3 69/5/3 68/5/3
f 79/2/3 77/2/3 78/2/3
f 79/2/3 68/2/3 77/2/3
f 80/5/3 69/5/3 79/5/3
f 83/3/3 82/3/3 81/3/3
f 84/3/3 82/3/3 83/3/3
f 87/3/3 86/3/3 85/3/3
f 88/3/3 86/3/3 87/3/3
f 93/2/3 90/2/3 89/2/3
f 94/2/3 90/2/3 93/2/3
f 95/4/3 92/4/3 91/4/3
f 96/4/3 92/4/3 95/4/3
f 97/1/3 93/1/3 92/1/3
f 97/1/3 94/1/3 93/1/3
f 100/4/3 92/4/3 96/4/3
f 101/1/3 97/1/3 92/1/3
f 101/2/3 98/2/3 97/2/3
f 102/2/3 98/2/3 101/2/3
f 103/4/3 100/4/3 99/4/3
f 104/4/3 92/4/3 100/4/3
f 104/4/3 100/4/3 103/4/3
f 104/1/3 101/1/3 92/1/3
f 105/1/3 101/1/3 104/1/3
f 106/1/3 101/1/3 105/1/3
f 107/2/3 106/2/3 105/2/3
f 108/2/3 106/2/3 107/2/3
f 109/2/4 110/2/4 114/2/4
f 114/2/4 110/2/4 115/2/4
f 111/3/4 112/3/4 116/3/4
f 112/4/4 113/4/4 117/4/4
f 116/3/4 112/3/4 117/3/4
f 117/4/4 113/4/4 118/4/4
f 113/1/4 114/1/4 119/1/4
f 114/1/4 115/1/4 119/1/4
f 118/4/4 113/4/4 123/4/4
f 113/1/4 119/1/4 124/1/4
f 119/2/4 120/2/4 124/2/4
f 124/2/4 120/2/4 125/2/4
f 121/3/4 122/3/4 126/3/4
f 122/4/4 123/4/4 127/4/4
f 126/3/4 122/3/4 127/3/4
f 123/4/4 113/4/4 128/4/4
f 127/4/4 123/4/4 128/4/4
f 113/1/4 124/1/4 128/1/4
f 128/1/4 124/1/4 129/1/4
f 129/1/4 124/1/4 130/1/4
f 129/2/4 130/2/4 131/2/4
f 131/2/4 130/2/4 132/2/4
f 133/5/4 134/5/4 135/5/4
f 135/5/4 134/5/4 136/5/4
f 141/3/5 138/3/5 137/3/5
f 142/3/5 138/3/5 141/3/5
f 143/3/5 140/3/5 139/3/5
f 144/3/5 140/3/5 143/3/5
f 147/4/5 146/4/5 145/4/5
f 148/4/5 146/4/5 147/4/5
f 153/2/5 150/2/5 149/2/5
f 154/2/5 150/2/5 153/2/5
f 155/2/5 152/2/5 151/2/5
f 156/2/5 152/2/5 155/2/5
f 159/2/5 158/2/5 157/2/5
f 160/2/5 158/2/5 159/2/5
f 161/2/5 159/2/5 157/2/5
f 162/2/5 158/2/5 160/2/5
f 163/2/5 161/2/5 157/2/5
f 163/2/5 162/2/5 161/2/5
f 164/2/5 158/2/5 162/2/5
f 164/2/5 162/2/5 163/2/5
f 165/5/5 164/5/5 163/5/5
f 166/5/5 164/5/5 165/5/5
f 167/3/6 168/3/6 171/3/6
f 171/3/6 168/3/6 172/3/6
f 169/3/6 170/3/6 173/3/6
f 173/3/6 170/3/6 174/3/6
f 175/2/6 176/2/6 181/2/6
f 176/1/6 177/1/6 182/1/6
f 181/2/6 176/2/6 182/2/6
f 182/1/6 177/1/6 183/1/6
f 178/1/6 179/1/6 184/1/6
f 179/2/6 180/2/6 185/2/6
f 184/1/6 179/1/6 185/1/6
f 185/2/6 180/2/6 186/2/6
f 187/5/6 188/5/6 189/5/6
f 189/5/6 188/5/6 190/5/6
